<svg height="64" viewBox="0 0 64 64" width="64" xmlns="http://www.w3.org/2000/svg"><g fill="#fff" stroke="#100f0f" stroke-opacity=".490196"><path d="m32 8.00494c-6.365 0-12.4693 2.52846-16.97 7.02916s-7.02918 10.605-7.02918 16.97 2.52848 12.4693 7.02918 16.97 10.605 7.0292 16.97 7.0292c6.3649 0 12.4692-2.5285 16.9699-7.0292 4.5008-4.5007 7.0292-10.605 7.0292-16.97s-2.5284-12.4693-7.0292-16.97c-4.5007-4.5007-10.605-7.02916-16.9699-7.02916zm-3.9999 8.52116v5.2323c1.2748-.498 2.6313-.7536 3.9999-.7539 1.3693.004 2.7258.2636 3.9998.7656v-5.2362c5.625 1.4557 10.0187 5.8464 11.4782 11.4703h-5.2323c.4979 1.2748.7536 2.6313.7539 3.9999-.004 1.3693-.2637 2.7258-.7656 3.9999h5.2361c-1.4556 5.6249-5.8463 10.0186-11.4703 11.4781v-5.2323c-1.2747.498-2.6312.7536-3.9998.7539-1.3693-.004-2.7259-.2636-3.9999-.7656v5.2362c-5.6249-1.4557-10.0186-5.8464-11.4781-11.4703h5.2322c-.4979-1.2748-.7536-2.6313-.7538-3.9999.004-1.3693.2636-2.7259.7656-3.9999h-5.2362c1.4557-5.6249 5.8464-10.0186 11.4703-11.4781z"/><circle cx="32.000014" cy="32.002867" r="5.999798"/></g></svg>
