<svg height="128" viewBox="0 0 128 128" width="128" xmlns="http://www.w3.org/2000/svg"><g fill="#fff" stroke="#100f0f" stroke-opacity=".490196"><path d="m59.9999 16.0778 1.3594 12.2286c.8733-.1489 1.7567-.2305 2.6426-.2305 2.7175 0 5.4055.7159 7.8712 2.0586 1.3181-3.3716 2.6843-6.7263 4.1269-10.0567z"/><path d="m64.0019 84.4066c-.7556 2.7274-1.2393 5.2752-2.2442 8.0391-1.7283 4.7536-3.813 9.3763-6.4141 13.3323 1.6769 3.916 4.3548 6.301 8.6563 6.301 4.2454 0 6.8755-2.493 8.5157-6.522-2.5341-3.907-4.5751-8.4454-6.2715-13.1113-1.0049-2.7639-1.4867-5.3117-2.2422-8.0391z"/><path d="m47.9998 56.0795c0 16.0002-8.0001 40.0005-16.0002 40.0005-8 0-16.0001-16.0002-16.0001 0 0 8 8.0001 16 24.0002 16 16.0002 0 24.0003-40.0003 24.0003-48.0004 0 8.0001 8.0001 48.0004 24.0003 48.0004 15.9997 0 24.0007-8 24.0007-16 0-16.0002-8.001 0-16.0006 0-8.0001 0-16.0002-24.0003-16.0002-40.0005 0-16.0001-8.0001-24.0003-16.0002-24.0003s-16.0002 8.0002-16.0002 24.0003z"/></g></svg>
