<svg height="128" viewBox="0 0 128 128" width="128" xmlns="http://www.w3.org/2000/svg"><g fill="#fff" stroke="#100f0f" stroke-opacity=".490196"><g><path d="m36.3883 62.5707c-9.5995 6.708-15.3317 15.6964-12.3888 33.3538 4.1818-8.3636 10.5482-12.3351 16.8166-14.2403-2.7381-6.9551-3.9218-12.8153-4.4278-19.1135z"/><path d="m91.6115 62.5707c-.5074 6.2985-1.6928 12.1589-4.4316 19.1135 6.2695 1.9047 12.6378 5.8751 16.8201 14.2403 2.943-17.6573-2.789-26.6458-12.3885-33.3538z"/><path d="m63.9999 15.9238c-16.0001 8-24.0002 24.0002-24.0002 32.0003 0 16.0001 0 24.0002 8.0001 40.0004h32.0003c8.0001-16.0002 8.0001-24.0003 8.0001-40.0004 0-8.0001-8.0001-24.0003-24.0003-32.0003zm0 24.0002c2.1218 0 4.1566.8429 5.6569 2.3432s2.3432 3.5351 2.3432 5.6569c0 2.1217-.8429 4.1566-2.3432 5.6569s-3.5351 2.3432-5.6569 2.3432c-2.1217 0-4.1566-.8429-5.6569-2.3432s-2.3431-3.5352-2.3431-5.6569c0-2.1218.8428-4.1566 2.3431-5.6569s3.5352-2.3432 5.6569-2.3432z"/></g><path d="m51.9999 91.9259c0 4.0001 0 12.0001 4 12.0001 0-4 0-4 4.0001-4 0 8 0 8 4 12 4.0001-4 4.0001-4 4.0001-12 4 0 4 0 4 4 4 0 4-8 4-12.0001z"/></g></svg>
