<svg height="64" viewBox="0 0 64 64" width="64" xmlns="http://www.w3.org/2000/svg"><g fill="#fff" stroke="#100f0f" stroke-opacity=".490196"><path d="m12.2168 19.973c5.8087 11.6174 15.8918 16.9984 25.5315 19.0061.7078-3.5033.8068-7.1046.8164-11.4865-8.7352-.7419-19.0263-2.6385-26.3479-7.5196z"/><path d="m16.2168 35.9732c2.8699 8.6095 9.8555 13.0848 16.5295 14.9357 1.7005-2.7477 2.8993-5.1828 3.752-7.5118-6.2265-.8037-13.2504-2.7365-20.2815-7.4239z"/><path d="m56.2173 11.9717c-12.0001 0-32.0004 0-48.00053-4.00001 4.00003 8.00011 24.00023 16.00021 36.00043 16.00021 0 12.0001 0 20.0002-8.0001 32.0003 16.0002-4 20.0002-24.0002 20.0002-44.0005z"/></g></svg>
