<svg height="128" viewBox="0 0 128 128" width="128" xmlns="http://www.w3.org/2000/svg"><g fill="#fff" stroke="#100f0f" stroke-opacity=".490196"><path d="m16 24.0001c0 32 8 40 39.9998 40v16.0001h-8c-8-.0001-8-.0001-8 8h47.9999c0-8 0-8-8-8h-7.9999v-16.0001c31.9992 0 40.0002-8 40.0002-40h-16.0003v-8.0001h-63.9998v8.0001zm8 7.9999h7.9999c0 8.0001 0 16.0002 7.9999 24.0001-15.9998 0-15.9998-16-15.9998-24.0001zm71.9997 0h7.9993c0 8.0001 0 24.0001-15.9993 24.0001 8-7.9999 8-16 8-24.0001z"/><path d="m31.9999 92.0001h63.9998v19.9999h-63.9998z"/></g></svg>
