<svg height="128" viewBox="0 0 128 128.00001" width="128" xmlns="http://www.w3.org/2000/svg" xmlns:xlink="http://www.w3.org/1999/xlink"><linearGradient id="a" gradientUnits="userSpaceOnUse" x1="79.500775" x2="79.500775" y1="103.99999" y2="111.99999"><stop offset="0" stop-color="#5fd35f"/><stop offset="1" stop-color="#5fd35f" stop-opacity="0"/></linearGradient><linearGradient id="b" gradientUnits="userSpaceOnUse" x1="34" x2="38" y1="25.999998" y2="43.999996"><stop offset="0" stop-color="#e9ddaf"/><stop offset="1" stop-color="#e9ddaf" stop-opacity="0"/></linearGradient><linearGradient id="c" gradientUnits="userSpaceOnUse" x1="79.500778" x2="79.500778" y1="103.99999" y2="111.99999"><stop offset="0" stop-color="#428a42"/><stop offset="1" stop-color="#428a42" stop-opacity="0"/></linearGradient><g fill="none" stroke="#e5ffd5" stroke-linecap="square"><path d="m24.400392 60.400393 50.400392 19.59961"/><path d="m58.000002 51.999998-16.800782 36.400396"/><path d="m32.800783 82.800784 13.199219-27.812821"/><path d="m62.009203 65.012062-8.026521 20.192466"/><path d="m26.000001 71.999997 32.000001 12.200201"/><path d="m68.000003 73.190777-4.000001 9.531272"/><path d="m27.19922 71.599612 6.800781-13.599615"/><path d="m60.800784 63.199221-18.800782-7.199223"/></g><path d="m59.509144 44.99791-42.002344 10.500586-1.506799 2.498408 3.500775 14.003099 8 16 10.004855 6.669904 3.998206.829276 15.59655-3.89957 20.400391 20.400387h12.000001l-22.800783-22.800778 16.80439-4.200309 1.996416-2.998916-10-9.999994-8-12.000001-3.001873-12.007415zm-2.008367 7.002092 2.800782 11.199219 5.599609 8.400391 8.400391 8.400391-33.601564 8.400391-8.398437-5.59961-5.601563-11.201172-2.798828-11.199219z" fill="url(#a)" stroke="url(#c)" stroke-linecap="square" stroke-width=".5"/><path d="m92.000004 43.999999 3.999996-4.000002 4 4.000002-3.999996 3.999999z" fill="#999"/><path d="m84.000003 16.000001-4 4h-4l-4 4v4l-4 4 4 4h4l2-2v-4l4-4h4l2-2v-4z" fill="#333" fill-opacity=".4"/><path d="m90.000003 21.999998-4 4h-4l-4 4v4l-4 4 4 4h4l2-2v-4l4-4h4l2-2v-4z" fill="#333" fill-opacity=".7"/><path d="m92 43.999996-3.999997.000003-4-4v-4.000001l4-3.999999h4.000001l4 3.999999v4.000001z" fill="#808080"/><path d="m94.000004 41.999998 5.999996-6v-3.999999l-3.999996-4-4 4v3.999999z" fill="#ccc" fill-opacity=".74902"/><path d="m94.000004 41.999998-6.000001 6h-4l-4-3.999999 4-4h4z" fill="#ccc" fill-opacity=".74902"/><path d="m92.000004 43.999999v3.999999h4v-2l-2-1.999999z" fill="#c83737"/><path d="m96.000004 39.999999v2l2 2h1.999996v-4z" fill="#c83737"/><path d="m22.000001 47.999998-6-12 12 4 6-13.999999 12.000001 10 10-8-2 11.999999z" fill="url(#b)"/><path d="m96.000004 27.999999 3.999996 4v3.999999l-3.999996 4.000001h3.999996v4l-3.999996 3.999999h-4v-3.999999l-4.000001 3.999999h-4l-4-3.999999 4-4v-4.000001l4-3.999999h4.000001z" fill="none" stroke="#333" stroke-linecap="square" stroke-width=".5"/></svg>
