<svg height="128" viewBox="0 0 128 128" width="128" xmlns="http://www.w3.org/2000/svg"><path d="m63.999996 16a47.999994 47.999994 0 0 0 -47.999996 47.999996 47.999994 47.999994 0 0 0 47.999996 48.000004 47.999994 47.999994 0 0 0 48.000004-48.000004 47.999994 47.999994 0 0 0 -48.000004-47.999996zm0 7.999999a39.999995 39.999995 0 0 1 39.999994 39.999997 39.999995 39.999995 0 0 1 -39.999994 39.999994 39.999995 39.999995 0 0 1 -39.999997-39.999994 39.999995 39.999995 0 0 1 39.999997-39.999997z" fill="#fff" stroke-width=".999993"/></svg>
