<svg height="128" viewBox="0 0 128 128" width="128" xmlns="http://www.w3.org/2000/svg" xmlns:xlink="http://www.w3.org/1999/xlink"><radialGradient id="a" cx="16.933332" cy="280.06662" gradientTransform="matrix(3.7795277 0 0 3.779526 .000001 -994.51909)" gradientUnits="userSpaceOnUse" r="12.7"><stop offset="0" stop-color="#ff2a2a"/><stop offset="1" stop-color="#ff2a2a" stop-opacity="0"/></radialGradient><ellipse cx="64" cy="64.000023" fill="url(#a)" rx="48" ry="47.999977" stroke-width="3.77952"/><ellipse cx="64" cy="64.000023" fill="#571414" rx="28" ry="27.999971" stroke-width="3.77952"/><path d="m64.000003 20.000054a44 43.99998 0 0 0 -44.000001 43.999981 44 43.99998 0 0 0 44.000001 43.999985 44 43.99998 0 0 0 43.999997-43.999985 44 43.99998 0 0 0 -43.999997-43.999981zm0 7.999997a36 35.999984 0 0 1 35.999995 35.999984 36 35.999984 0 0 1 -35.999995 35.999985 36 35.999984 0 0 1 -36.000001-35.999985 36 35.999984 0 0 1 36.000001-35.999984z" fill="#ff2a2a" stroke-width=".999993"/><path d="m64.000003 44.000045a19.999999 19.99999 0 0 0 -19.999999 19.99999 19.999999 19.99999 0 0 0 19.999999 19.999993 19.999999 19.99999 0 0 0 20.000002-19.999993 19.999999 19.99999 0 0 0 -20.000002-19.99999zm0 3.999997a16 15.999993 0 0 1 15.999999 15.999993 16 15.999993 0 0 1 -15.999999 15.999992 16 15.999993 0 0 1 -16.000001-15.999992 16 15.999993 0 0 1 16.000001-15.999993z" fill="#ff2a2a" stroke-width=".999993"/><g fill="#571414"><circle cx="70.000048" cy="50.001208" r="6.000004"/><circle cx="74.000046" cy="26.001155" r="10.000005"/><circle cx="72.000043" cy="88.001246" r="8.000006"/><circle cx="84.000055" cy="36.001187" r="8.000006"/><circle cx="60.000039" cy="80.001228" r="4.000001"/><circle cx="36.000022" cy="60.00124" r="8.000006"/><circle cx="48.000032" cy="96.001226" r="12.000008"/><circle cx="100.00006" cy="68.001258" r="8.000006"/></g></svg>
