<svg height="128" viewBox="0 0 128 128" width="128" xmlns="http://www.w3.org/2000/svg"><g fill="#fff" stroke="#100f0f" stroke-opacity=".490196"><path d="m31.1306 61.1376-11.131 6.8621 16.0002 5.8333-4 12.0002 20.0002-8.0001 12.0001 16.0002 12.0002-16.0002 20.0002 8.0001-4.0001-12.0002 16.0006-5.8333-11.1294-6.8621c-.3259.3455-.6626.6781-1.0176.9824-2.3454 2.0107-5.2678 3.3962-8.5841 4.502-6.6326 2.2117-14.9342 3.211-23.2678 3.211-8.3337 0-16.6372-.9993-23.2698-3.211-3.3163-1.1058-6.2387-2.4913-8.5841-4.502-.355-.3042-.6918-.6371-1.0176-.9824z"/><path d="m64.0001 33.8326c-16.0002 0-32.0003 4.0001-32.0003 12.0001v8.0001c0 8.0001 16.0001 12.0002 32.0003 12.0002s32.0004-4.0001 32.0004-12.0002v-8.0001c0-8-16.0002-12.0001-32.0004-12.0001zm-28.0003 12.0001c12.0001 8.0001 44.0005 8.0001 56.0006 0-12.0001 12.0002-44.0005 12.0002-56.0006 0z"/></g></svg>
