<svg height="128" viewBox="0 0 128 128" width="128" xmlns="http://www.w3.org/2000/svg"><g fill="#fff" stroke="#100f0f" stroke-opacity=".490196"><path d="m31.1305 79.3555-11.1311 6.862 16.0003 5.8334-4.0001 12.0001 20.0003-8 12.0001 16 12.0001-16 20.0003 8-4.0001-12.0001 15.9997-5.8334-11.1285-6.862c-.3259.3454-.6626.678-1.0176.9824-2.3454 2.0106-5.2678 3.3962-8.5841 4.502-6.6326 2.2116-14.9342 3.211-23.2678 3.211-8.3337 0-16.6373-.9994-23.2698-3.211-3.3163-1.1058-6.2387-2.4914-8.5841-4.502-.3551-.3043-.6918-.6371-1.0176-.9824z"/><path d="m64 52.0504c-16.0002 0-32.0004 4.0001-32.0004 12.0002v8.0001c0 8.0001 16.0002 12.0001 32.0004 12.0001s32.0004-4 32.0004-12.0001v-8.0001c0-8.0001-16.0002-12.0002-32.0004-12.0002zm-28.0003 12.0002c12.0001 8.0001 44.0005 8.0001 56.0006 0-12.0001 12.0001-44.0005 12.0001-56.0006 0z"/><path d="m64 20.0501-16.0002 24.0003h32.0004z"/><path d="m15.9995 32.0502 24.0002-16.0001v32.0004z"/><path d="m112.001 32.0502-24.0007-16.0001v32.0003z"/></g></svg>
