<svg height="128" viewBox="0 0 384 128" width="384" xmlns="http://www.w3.org/2000/svg"><circle cx="191.76393" cy="64.472145" fill="#ff2a2a" r="44.00061" stroke="#800000" stroke-linecap="square" stroke-width="8.00012"/><path d="m181.76379 50.47195 10.20427-11.297559 10.02062 11.460762 13.89791 6.213696-7.80329 13.071747-1.61489 15.137836-14.84332-3.381978-14.89596 3.142004-1.37039-15.161928-7.59133-13.19597z" fill="#ff8080" stroke-width="3.77958"/><path d="m277.76512 108.47276 42.00058-84.00117 42.00058 84.00117z" fill="#37c837" stroke="#165016" stroke-width="8.00012"/><path d="m301.76545 92.472532 18.00025-36.0005 18.00025 36.0005h-10.00014l-8.00011-14.000192-8.00011 14.000192z" fill="#80ff80" stroke-width="3.77958"/><path d="m19.761544 20.471536h88.001226v88.001224h-88.001226z" fill="#59f" stroke="#003380" stroke-linecap="square" stroke-width="8.00012"/><path d="m37.761794 38.471785v12.000166l12.000168 4.000055v20.000277l-12.000168 4.000056v12.000166h52.000723v-12.000166l-12.000167-4.000056v-20.000277l12.000167-4.000055v-12.000166z" fill="#acf" stroke-width="1.00001"/></svg>
