<svg height="128" viewBox="0 0 128 128" width="128" xmlns="http://www.w3.org/2000/svg"><path d="m63.755857 16.000153a47.999999 47.999927 0 0 0 -47.755859 47.999928 47.999999 47.999927 0 0 0 47.999999 47.999929 47.999999 47.999927 0 0 0 48.000003-47.999929 47.999999 47.999927 0 0 0 -48.000003-47.999928 47.999999 47.999927 0 0 0 -.24414 0zm.24414 15.999976a31.999999 31.99995 0 0 1 32.000001 31.999952 31.999999 31.99995 0 0 1 -4.435548 16.249975l-43.816406-43.81634a31.999999 31.99995 0 0 1 16.251953-4.433587zm-27.564452 15.749977 43.816405 43.81634a31.999999 31.99995 0 0 1 -16.251953 4.433587 31.999999 31.99995 0 0 1 -31.999999-31.999952 31.999999 31.99995 0 0 1 4.435547-16.249975z" fill="#ff2a2a" stroke="#1a1a1a" stroke-linecap="round" stroke-width=".999992"/></svg>
