<svg height="128" viewBox="0 0 128 128" width="128" xmlns="http://www.w3.org/2000/svg"><path d="m35.899568 15.999999c11.045734.000001 20.000072 8.954304 20.000074 20-.000228 4.030403-1.218157 7.966707-3.494154 11.29297l6.683619 4.574218 22.562583-15.474609c15.038335-9.687641 26.37528-1.918783 30.24816 3.607422l-35.076302 24.000001 35.076302 24.000001c-3.87288 5.526207-15.209829 13.295058-30.24816 3.607422l-22.562583-15.47461-6.683619 4.574219c2.275996 3.326259 3.493927 7.262564 3.494154 11.292969 0 11.045698-8.954342 20.000008-20.000074 20.000008-11.045727 0-20.000067-8.95431-20.000067-20.000008 0-6.295151 2.9639-12.222915 8.00003-16l1.4043-.962892 16.093804-11.037109-16.093804-11.03711-1.4043-.962892c-5.03613-3.777087-8.00003-9.704853-8.00003-15.999999 0-11.045696 8.95434-20 20.000067-20.000001zm0 12a8.0000291 8 0 0 0 -8.000027 8 8.0000291 8 0 0 0 8.000027 8 8.0000291 8 0 0 0 8.00003-8 8.0000291 8 0 0 0 -8.00003-8zm0 56.000003a8.0000292 8.0000001 0 0 0 -8.000027 8 8.0000292 8.0000001 0 0 0 8.000027 7.999998 8.0000292 8.0000001 0 0 0 8.00003-7.999998 8.0000292 8.0000001 0 0 0 -8.00003-8z" fill="#5fd35f" stroke="#1a1a1a" stroke-linecap="round" stroke-width=".999993"/></svg>
