<svg height="16" viewBox="0 0 16 16" width="16" xmlns="http://www.w3.org/2000/svg"><g fill="#fff" fill-opacity=".977064"><path d="m5.0898 1.56203c-.33732-.02268-.77736.34016-.58985.66505l.91017 1.5762c-.40707.28258-.77701.63049-1.09865 1.03322 2.56584 1.65092 4.81118 1.65013 7.37703-.00098-.3457-.43525-.7475-.80677-1.1914-1.10156l.8692-1.50688c.25-.43302-.6162-.93306-.8663-.5l-.88963 1.54105c-.51841-.20395-1.06246-.30853-1.61037-.30955-.58551.00342-1.16595.12508-1.71487.35944l-.91896-1.59086c-.0625-.10848-.16392-.15799-.27637-.16517z"/><path d="m3.63763 5.90321v.00099c-.41737.85692-.63692 1.82252-.6377 2.80471.00283 2.95059 1.94719 5.41989 4.50006 5.71489v-6.9942c-1.30409-.1047-2.60635-.6109-3.86236-1.52639z"/><path d="m12.3614 5.911c-1.2468.91107-2.54923 1.41704-3.86139 1.5186v7.0001c2.55479-.2953 4.49989-2.768 4.50009-5.72079-.0021-.97999-.222-1.9431-.6387-2.79791z"/></g></svg>
