<svg height="16" viewBox="0 0 16 16" width="16" xmlns="http://www.w3.org/2000/svg"><path d="m4.9999624.9999055c-1.0000126 0-1.5000189.5-1.5000189 1.5000378v4.0000378c-1.0000125 0-1.5000189.5-1.5000189 1.5000378v5.5000381c0 1 .5000064 1.500038 1.5000189 1.500038h9.0001125c1.000013 0 1.500019-.5 1.500019-1.500038v-5.5000381c0-1.0000378-.500006-1.5000378-1.500019-1.5000378v-4.0000378c0-1.0000378-.500006-1.5000378-1.500018-1.5000378zm1.5000189 1.5000378h3.0000374c1.5000193 0 1.5000193 0 1.5000193 1.5v2.5000378h-6.0000756v-2.5000378c0-1.5 0-1.5 1.5000189-1.5z" fill="#fff" stroke-width="3.77958"/></svg>
