<svg height="16" viewBox="0 0 16 16" width="16" xmlns="http://www.w3.org/2000/svg"><path d="m2.9999307.99990285c-1.2688258 0-2.00002775 1.00002645-2.00002775 2.00002765v2.0000278c0 .9729395 1.00001405 1.9453394 2.00002775 1.9453394l2.0000277.054688c1.0000138 0 2.0000277-.9724001 2.0000277-1.9453395v-2.109404c0-.9730151-1.0000139-1.94533945-2.0000277-1.94533945zm8.0001113 0c-1.2688258 0-2.0000281 1.00002645-2.0000281 2.00002765v2.0000278c0 .9729395 1.0000141 1.9453394 2.0000281 1.9453394l2.000027.054688c1.000013 0 2.000028-.9724001 2.000028-1.9453395v-2.109404c0-.973015-1.000015-1.94533945-2.000028-1.94533945zm-8.0001113 8.00011095c-1.2688252 0-2.00002775 1.0000272-2.00002775 2.0000272v2.000028c0 .97294 1.00001415 1.945339 2.00002775 1.945339l2.0000277.05469c1.0000134 0 2.0000277-.9724 2.0000277-1.945339v-2.109405c0-.9730149-1.0000143-1.9453392-2.0000277-1.9453392zm8.0001113 0c-1.2688258 0-2.0000281 1.0000272-2.0000281 2.0000272v2.000028c0 .97294 1.0000141 1.945339 2.0000281 1.945339l2.000027.05469c1.000013 0 2.000028-.9724 2.000028-1.945339v-2.109405c0-.9730149-1.000015-1.9453392-2.000028-1.9453392z" fill="#fff" stroke-width="3.77958"/></svg>
