<svg height="16" viewBox="0 0 16 16" width="16" xmlns="http://www.w3.org/2000/svg"><path d="m6.9995601.99990295c-.5542513 0-1.0004398.44599865-1.0004398 1.00001385v1.4238478a5.0021983 5.0000479 0 0 0 -.9633141.5566485l-1.2329637-.7129006c-.4799957-.2770076-1.0906631-.1125987-1.3677887.3671926l-1.0004397 1.7304928c-.2771257.4797913-.1126467 1.0901988.3673489 1.3672064l1.2290559.7089942a5.0021983 5.0000479 0 0 0 -.0332182.5586015 5.0021983 5.0000479 0 0 0 .0371258.5566484l-1.2329638.7109473c-.4799953.2770076-.6444743.8874153-.3673486 1.3672073l1.0004397 1.730492c.2771256.479791.887793.6442 1.3677887.367193l1.2329637-.712901a5.0021983 5.0000479 0 0 0 .9633141.560554v1.419942c0 .554016.4461885 1.000014 1.0004398 1.000014h2.0008794c.5542512 0 1.0004395-.445998 1.0004395-1.000014v-1.423848a5.0021983 5.0000479 0 0 0 .963315-.556648l1.232963.712901c.479996.277007 1.090663.112598 1.367789-.367193l1.00044-1.730492c.277126-.479792.112647-1.0901997-.36735-1.3672073l-1.229055-.7089941a5.0021983 5.0000479 0 0 0 .033214-.5586016 5.0021983 5.0000479 0 0 0 -.037125-.5566483l1.232962-.7109474c.479997-.2770076.644476-.8874151.36735-1.3672064l-1.000436-1.7304928c-.277126-.4797913-.887793-.6442002-1.367789-.3671926l-1.232963.7129006a5.0021983 5.0000479 0 0 0 -.963315-.5605547v-1.4199416c0-.5540152-.4461883-1.00001385-1.0004395-1.00001385zm1.0004396 5.00006935a2.0008793 2.0000276 0 0 1 2.0008793 2.0000276 2.0008793 2.0000276 0 0 1 -2.0008793 2.0000281 2.0008793 2.0000276 0 0 1 -2.0008794-2.0000281 2.0008793 2.0000276 0 0 1 2.0008794-2.0000276z" fill="#fff" stroke-width="1.00022"/></svg>
