<svg height="184" viewBox="0 0 180 184" width="180" xmlns="http://www.w3.org/2000/svg"><g><path d="m89.6337 17.0002c-40.1737.2016-72.6342 32.8136-72.6337 72.9728.0003.3379.0029.6757.0079 1.0136h-.0079v4.054h.0079c.5545 39.9024 33.0711 71.9584 72.9922 71.9594 39.9209-.001 72.4379-32.057 72.9919-71.9594h.008v-4.054h-.008c.005-.3379.008-.6757.008-1.0136 0-19.3536-7.691-37.9145-21.381-51.5995-13.69-13.6851-32.258-21.3733-51.6189-21.3733-.1221-.0003-.2443-.0003-.3664 0z"/><path d="m17.9733 90v4.9999h.0079c.547 39.3701 32.6301 70.9991 72.0189 71.0001 39.3889-.001 71.4719-31.63 72.0189-71.0001h.008v-4.9999z" fill="#333"/><circle cx="90.000062" cy="89.999956" fill="#4d4d4d" r="72.026713"/><path d="m90.0001 42 11.0249 21.3923 22.929-7.3334-7.336 22.9198 21.4 11.0212-21.4 11.0211 7.336 22.92-22.929-7.333-11.0249 21.392-11.0254-21.392-22.9284 7.333 7.3361-22.92-21.4002-11.0211 21.4002-11.0212-7.3361-22.9198 22.9284 7.3334z" fill="#fff" stroke="#100f0f" stroke-opacity=".490196"/></g></svg>
