<svg height="304" viewBox="0 0 304 304" width="304" xmlns="http://www.w3.org/2000/svg"><g><g fill-rule="evenodd"><path d="m152 13.5c-17.933 0-35.858 3.5532-52.4258 10.3906-16.5679 6.8374-31.7664 16.9536-44.4473 29.5879s-22.8342 27.7752-29.6972 44.2832c-6.8631 16.5083-10.4297 34.3703-10.4297 52.2383v.002c.0005.443.003.885.0078 1.328-.0027.896-.0079 1.799-.0078 2.17 0 76.748 61.3586 137 137 137 75.641 0 137-60.252 137-137 0-.354-.005-1.219-.008-2.082v-.006c0-.004 0-.006 0-.01.005-.467.008-.935.008-1.402 0-17.869-3.567-35.731-10.43-52.2387-6.863-16.5076-17.016-31.6485-29.697-44.2828s-27.879-22.7505-44.447-29.5879-34.493-10.3906-52.426-10.3906z"/><path d="m16.0137 149.5c-.0093.667-.0139 3.333-.0137 4 0 76.215 60.8892 136 136 136 75.111 0 136-59.785 136-136-.001-.667-.006-3.333-.016-4z" fill="#333"/><ellipse cx="152.000086" cy="150.000094" fill="#4d4d4d" rx="136.000075" ry="135.500081"/></g><path d="m57.5 104.5c-41 0-41 27.977-41 43.5 0 15.477 0 47.5 41 47.5h189c41 0 41-32.023 41-47.5 0-15.523 0-43.5-41-43.5z" fill="#333"/><path d="m57.6934 105.5c-40 0-40.1934 27-40.1934 42.5s0 42.5 40 42.5h189c40 0 40-27 40-42.5s-.193-42.5-40.193-42.5z" fill="#4d4d4d"/><g fill="#fff" stroke="#100f0f" stroke-opacity=".490196"><path d="m86.3091 124-48.0001 24 48.0001 24z"/><path d="m217.691 124 48 24-48 24z"/></g></g></svg>
