<svg height="100" viewBox="0 0 345 100" width="345" xmlns="http://www.w3.org/2000/svg"><path d="m46.999987 37.000007-5.999999 10.999999-.999999 15.000002 5.000001 10 12.500003 5.000005 12.499992-5.000005 4.999996-10-.999998-15.000002-5.999999-10.999999z" fill="#808080"/><path d="m54.999987 38.000006-6.999998 4.999998-11.000001 11.000002-6.999998 12.000002-.000001 13 10 9.000001 8.999999-3 5.999999-10 2.000001-17.000003v-20z" fill="#ccc" fill-opacity=".75"/><path d="m59.999987 38.000006 6.999998 4.999998 10.999996 11.000002 7.000002 12.000002v13l-10.000002 9.000001-8.999994-3-6-10-2.000001-17.000003v-20z" fill="#ccc" fill-opacity=".75"/><path d="m49.99999 18.000007-10.000001 4v12.000001l8 6.999998 9.500011 2.000005 9.499985-2.000005 7.999996-6.999998v-12.000001l-9.999997-4z" fill="#999"/><path d="m44.99999 18.000007-7.000002 3-3 7.000001 3 7 7.000005 2.999998 6.999994-2.999998 3-7-3-7.000001z" fill="#c83737"/><path d="m69.999985 18.000007-6.999998 3-3 7.000001 3 7 7.000002 2.999998 6.999993-2.999998 3-7-3-7.000001z" fill="#c83737"/><g fill="#4d4d4d"><path d="m55.999986 18.000007-1.999998-1 1.999998-5.000001-4.999997 4.000001v2z"/><path d="m58.999989 18.000007 1.999997-1-1.999997-5 4.999997 4v2z"/><path d="m53.999988 37.00001-4.000002 3.999996-.999998 4.999998-1.999997 3.000001 2.999999 3 2.999996-3-1.999997-3.000001.999998-3.999999 3-3 .999999-1.999998z"/><path d="m60.999986 37.00001 4.000002 3.999996.999999 4.999998 1.999997 3.000001-3 3-2.999996-3 1.999998-3.000001-.999999-3.999999-3-3-.999998-1.999998z"/></g><path d="m161.99998 37.000007-6 10.999999-1 15.000002 5.00001 10 12.5 5.000005 12.49999-5.000005 5-10-1-15.000002-6-10.999999z" fill="#808080"/><path d="m170.32711 39.903849-8.59538.3456-15.22956 3.171878-12.43191 6.20061-7.12498 10.87357 3.43159 13.008618 9.17209 2.423407 10.49933-5.075827 10.99016-13.12313 10.96152-16.728569z" fill="#ccc" fill-opacity=".75"/><path d="m174.67282 39.903849 8.59538.3456 15.22956 3.171878 12.43191 6.20061 7.12498 10.87357-3.43159 13.008618-9.17209 2.423407-10.49933-5.075827-10.99016-13.12313-10.96152-16.728569z" fill="#ccc" fill-opacity=".75"/><path d="m164.99999 18.000008-10.00001 4v12.000001l8.00001 6.999997 9.50001 2.000005 9.49998-2.000005 8-6.999997v-12.000001l-10-4z" fill="#999"/><path d="m159.99999 18.000007-7 3.000001-3 7 3 7.000001 7 2.999997 6.99999-2.999997 3-7.000001-3-7z" fill="#c83737"/><path d="m184.99998 18.000007-7 3.000001-3 7 3 7.000001 7.00001 2.999997 6.99999-2.999997 3-7.000001-3-7z" fill="#c83737"/><path d="m170.99998 18.000007-1.99999-1 1.99999-5-4.99999 4v2z" fill="#4d4d4d"/><path d="m173.99999 18.000007 1.99999-1-1.99999-5 4.99999 4v2z" fill="#4d4d4d"/><path d="m168.99999 37.000011-4.00001 3.999995-1 4.999998-1.99999 3.000001 3 3 2.99999-3-1.99999-3.000001.99999-3.999999 3-3 1-1.999998z" fill="#4d4d4d"/><path d="m175.99998 37.000011 4.00001 3.999995.99999 4.999998 2 3.000001-3 3-2.99999-3 1.99999-3.000001-1-3.999999-3-3-.99999-1.999998z" fill="#4d4d4d"/><path d="m277.12502 37.0045-6 10.999999-1 15.000002 5.00001 10 12.5 5.000005 12.49999-5.000005 5-10-1-15.000002-6-10.999999z" fill="#808080"/><g fill="#ccc" fill-opacity=".75"><path d="m285.45215 39.908342-8.59538.3456-15.22956 3.171878-12.43191 6.20061-4.1953 6.37357 28.85065 4.494787 2.31284-2.761719 10.96152-16.728569z"/><path d="m245 56-.90577-12.352228 8.58553-10.358016 9.3405 1.659892 7.38986 9.021626 4.44053 16.523513z"/><path d="m289.79786 39.908342 8.59537.3456 15.22956 3.171878 8.1703 4.075062-5.77167 26.228187-5.94474-2.872871-10.99016-13.12313-10.96152-16.728569z"/><path d="m321.79309 47.500882-12.97937 1.957865-7.62745 11.082505 4.14162 8.535066 10.69353 4.652751z"/></g><path d="m285.86537 15.990394-10.76713-.262881-4.72731 11.029625 4.5955 9.585484 7.94391 5.580727 9.51966 1.904165 10.11067-3.282409 4.7273-11.029625-7.61558-7.615961z" fill="#999"/><path d="m281.26969 14.020684-7.61577-.000187-5.515 5.252122-.00019 7.615774 5.25212 5.514997 7.61577.000186 5.515-5.252123.00018-7.615773z" fill="#d35f5f"/><path d="m304.24807 23.869228-7.61578-.000187-5.515 5.252122-.00018 7.615774 5.25213 5.515001 7.61576.000186 5.515-5.252123.00019-7.615773z" fill="#d35f5f"/><path d="m291.38017 18.354041-1.44432-1.707015 3.80797-3.807797-6.17143 1.706836-.78789 1.83827z" fill="#4d4d4d"/><path d="m294.13759 19.535871 2.2322-.131256.13145-5.383556 3.0199 5.646247-.78789 1.83827z" fill="#4d4d4d"/><path d="m288.75709 38.435588 1.60103 4.605492 2.79718 3.25546 3.5931.299271.48388 4.21496-4.21495.483865-1.10573-3.431813-3.38816-3.543495-1.73596-5.095949.21163-2.080357z" fill="#4d4d4d"/><path d="m281.86358 35.481024-4.98971 2.757312 1.50884 4.889061-1.24643 3.383251 3.61611 2.218944 2.21894-3.616113-2.64358-2.451808-1.15605-3.43848 4.13621-2.035148.59091-1.378703z" fill="#4d4d4d"/><path d="m272.27512 17.23747 3.67645 5.383654-6.43404 1.050294 1.83818 4.59577 5.38365-3.676448 1.05029 6.434041 4.59577-1.838177-3.67644-5.383654 6.43404-1.050293-1.83818-4.59577-5.38365 3.676447-1.0503-6.434041z" fill="#f4d7d7" stroke-linecap="square"/><path d="m295.2535 27.086014 3.67644 5.383654-6.43404 1.050293 1.83818 4.595771 5.38365-3.676448 1.0503 6.434041 4.59577-1.838177-3.67645-5.383654 6.43404-1.050293-1.83818-4.595771-5.38365 3.676448-1.05029-6.434041z" fill="#f4d7d7" stroke-linecap="square"/></svg>
