<svg height="128" viewBox="0 0 128 128" width="128" xmlns="http://www.w3.org/2000/svg"><g fill="#fff" stroke="#100f0f" stroke-opacity=".490196"><path d="m15.845 55.3089 20.0002-40.0004 20.0002 40.0004z"/><path d="m71.8456 15.3085v40.0004l40.0004-20.0002z"/><path d="m63.8454 113.309c-1.2806.006-6.891-9.359-8.0001-10-1.1206-.647-12.1327-.882-12.7847-2-.6453-1.106 4.6603-10.6474 4.6603-11.928 0-1.294-5.3023-10.9484-4.6603-12.0719.6354-1.1119 11.5513-1.2879 12.6604-1.9283 1.1206-.647 6.8304-10.0661 8.1244-10.0719 1.2806-.0057 6.891 9.3598 8.0001 10.0001 1.1206.6471 12.1327.8823 12.7847 2.0001.6453 1.1062-4.6603 10.6476-4.6603 11.9283 0 1.294 5.3023 10.9486 4.6603 12.0716-.6353 1.112-11.5513 1.288-12.6603 1.929-1.1207.647-6.8305 10.066-8.1245 10.071z" stroke-linecap="round" stroke-linejoin="round"/></g></svg>
