<svg height="128" viewBox="0 0 128 128" width="128" xmlns="http://www.w3.org/2000/svg"><g fill="#fff" stroke="#100f0f" stroke-linecap="round" stroke-linejoin="round" stroke-opacity=".490196"><path d="m64 16c-26.509668-.000001-48.000001 21.490332-48 48-.000001 26.509668 21.490332 48 48 48s48-21.490332 48-48-21.490332-48.000001-48-48zm-8 17.140625v12.544922a19.999999 19.999999 0 0 1 8-1.685547 19.999999 19.999999 0 0 1 8 1.669922v-12.529297a32.000001 32.000001 0 0 1 22.859375 22.859375h-12.529297a19.999999 19.999999 0 0 1 1.669922 8 19.999999 19.999999 0 0 1 -1.685547 8h12.544922a32.000001 32.000001 0 0 1 -22.859375 22.859375v-12.544922a19.999999 19.999999 0 0 1 -8 1.685547 19.999999 19.999999 0 0 1 -8-1.685547v12.544922a32.000001 32.000001 0 0 1 -22.859375-22.859375h12.544922a19.999999 19.999999 0 0 1 -1.685547-8 19.999999 19.999999 0 0 1 1.685547-8h-12.544922a32.000001 32.000001 0 0 1 22.859375-22.859375z"/><circle cx="64.000036" cy="64.000036" r="12.000008"/></g></svg>
