<svg height="128" viewBox="0 0 512 128" width="512" xmlns="http://www.w3.org/2000/svg"><g stroke-width="1.5"><g fill="#ffb030" stroke="#f17b13" stroke-opacity=".490196"><path d="m20.0064 16.0009v95.9971h47.9986v-19.9993h-15.9995c-7.9998 0-11.9996-3.9999-11.9996-11.9996l-.0001-48.9987z"/><path d="m108.004 15.9996v95.9974h36.374c7.624 0 11.624-4 11.624-11.9998v-31.9991c0-7.9998-4-11.9996-11.999-11.9996v-27.9992c0-7.9997-4-11.9997-12-11.9997zm15.999 55.9984c12 0 16 0 16 9.9997s-4 9.9997-16 9.9997z"/><path d="m76.0048 16.0011h23.9992v15.9993h-23.9992z"/><path d="m76.0048 40.0003h23.9992v71.9977h-23.9992z"/><g><path d="m220.001 16.0009v95.9971h47.998l-15.999-19.9993c-8 0-12-3.9999-12-9.9997s4-9.9997 12-9.9997v-15.9995c-8 0-12-4-12-9.9998s4-9.9997 12-9.9997l15.999-19.9994z"/><path d="m164.002 16.0009h24c7.999 0 11.999 3.9999 11.999 11.9996v27.9993c8 0 12 3.9998 12 11.9996v43.9986l-23.999-23.9992-24 23.9992z"/></g></g><g fill="#ffd631" stroke="#f19c12"><path d="m275.999 16.0009h23.999c8 0 12 3.9999 12 11.9996v27.9993c8 0 12 3.9998 12 11.9996v43.9986l-24-23.9992-23.999 23.9992z"/><path d="m343.997 15.9996c-8 0-12 4-12 11.9997v83.9977l23.999-23.9995 24 23.9995v-83.9977c0-7.9997-4-11.9997-12-11.9997zm11.999 19.9995c8 0 8 3.9998 8 19.9994h-15.999c0-15.9996 0-19.9994 7.999-19.9994z"/><path d="m455.993 15.9996c-7.999 0-11.999 4-11.999 11.9997v83.9977l23.999-23.9995 23.999 23.9995v-83.9977c0-7.9997-4-11.9997-11.999-11.9997zm12 19.9995c8 0 8 3.9998 8 19.9994h-16c0-15.9996 0-19.9994 8-19.9994z"/><path d="m387.996 111.998v-95.9971l23.999 11.9996 24-11.9996v95.9971l-24-23.9992z"/></g><g fill="#f17b13"><path d="m76.0047 59.9983v3.9999h23.9993v-3.9999zm0 7.9998v11.9996h23.9993v-11.9996zm0 19.9994v23.9995h23.9993v-23.9995z"/><path d="m108.004 59.9983v3.9999h47.59c-.352-1.5648-.938-2.8944-1.75-3.9999zm0 7.9998v11.9996h15.999v-7.9997c11.133 0 15.372.0146 15.928 7.9997h16.071v-11.9996zm0 19.9994v23.9995h36.374c7.624 0 11.624-4 11.624-11.9998v-11.9997h-16.921c-1.76 3.9848-6.247 3.9999-15.078 3.9999v-3.9999z"/><path d="m164.002 59.9983v3.9999h47.591c-.353-1.5648-.939-2.8944-1.75-3.9999zm0 7.9998v11.9996h47.999v-11.9996zm0 19.9994v23.9995l23.999-23.9995zm23.999 0 24 23.9995v-23.9995z"/></g><path d="m331.997 59.9983v3.9999h47.999v-3.9999zm0 7.9998v11.9996h47.999v-11.9996zm0 19.9994v23.9995l23.999-23.9995zm23.999 0 24 23.9995v-23.9995z" fill="#f19c12"/><path d="m387.996 59.9996v3.9999h47.999v-3.9999zm0 7.9998v11.9997h47.999v-11.9997zm0 19.9994v23.9992l23.999-23.9992zm23.999 0 24 23.9992v-23.9992z" fill="#f19c12"/><path d="m20.0064 23.9994v3.9999l19.9994 14.9995v-3.9998zm0 7.9998v11.9996l19.9994 14.9996v-11.9997zm0 19.9994v59.9984h47.9986v-19.9996h-15.9996c-7.9997 0-11.9996-3.9999-11.9996-11.9997v-12.9996z" fill="#f17b13"/><path d="m491.635 24.267-17.949 13.4625c.664.6985 1.14 1.6471 1.475 2.8925l16.831-12.6227c0-1.3634-.125-2.6013-.357-3.7323zm.357 7.7322-16.253 12.1891c.252 2.9106.254 6.7599.254 11.8102l15.999-11.9997zm-15.999 23.9993h-16l-15.999 11.9996v11.9996zm-15.92-8.0603-16.079 12.0601v3.9999l16.011-12.0074c.007-1.4811.035-2.819.068-4.0526zm31.919 4.0604-47.998 35.9989v23.9995l23.999-23.9995 23.999 23.9995z" fill="#f19c12"/><path d="m275.999 23.9994v3.9999l35.999 26.9992v-3.9999zm0 7.9998v11.9996l47.998 35.9989v-11.9996zm0 19.9994v59.9984l23.999-23.9995 23.999 23.9995v-23.9995zm37.391 4.0448 10.102 7.5759c-1.2-4.693-4.562-7.223-10.102-7.5759z" fill="#f19c12"/><path d="m240.045 44.9656-20.045 15.0327v3.9999l20.328-15.2456c-.212-.8615-.328-1.7779-.328-2.7538 0-.3518.017-.6956.045-1.0332zm1.613 6.7888-21.658 16.2437v11.9996l32-23.9992c-5.028 0-8.474-1.5809-10.342-4.2441zm10.342 12.2438-32 23.9993v23.9995h47.999l-15.999-19.9996c-8 0-12-3.9999-12-9.9997s4-9.9997 12-9.9997z" fill="#f17b13"/></g></svg>
