<svg height="128" viewBox="0 0 128 128" width="128" xmlns="http://www.w3.org/2000/svg"><g fill="none" stroke-linecap="round" stroke-linejoin="round"><path d="m69.520624 99.200691-5.520123 9.200139-5.520116-9.200139-12.88028 1.840009 7.360157-11.040145-7.360157-11.040149 12.88028 1.84005 5.520116-9.200137 5.520123 9.200137 12.880277-1.84005-7.360158 11.040149 7.360158 11.040145" opacity=".8" stroke="#333" stroke-width="9.44899"/><path d="m69.520624 99.200691-5.520123 9.200139-5.520116-9.200139-12.88028 1.840009 7.360157-11.040145-7.360157-11.040149 12.88028 1.84005 5.520116-9.200137 5.520123 9.200137 12.880277-1.84005-7.360158 11.040149 7.360158 11.040145" opacity=".8" stroke="#ccc" stroke-width="7.55919"/><path d="m39.199968 51.600037h-19.20041l16.000338-32.000406 16.000346 32.000406" opacity=".8" stroke="#333" stroke-width="9.44899"/><path d="m39.199968 51.600037h-19.200411l16.000339-32.000406 16.000342 32.000406" opacity=".8" stroke="#ccc" stroke-width="7.55919"/><path d="m76.000783 32.399778v19.200259l32.000667-16.000203-32.000667-16.000241" opacity=".8" stroke="#333" stroke-width="9.44899"/><path d="m76.000783 32.399778v19.200259l32.000667-16.000203-32.000667-16.000241" opacity=".8" stroke="#ccc" stroke-width="7.55919"/></g></svg>
