<svg height="160" viewBox="0 0 296 160" width="296" xmlns="http://www.w3.org/2000/svg"><g stroke="#fecea8" stroke-width="8"><path d="m44.0001 148.11 8-64.0018 47.9999-56.0014 48-16.0004 48 16.0004 48 56.0014 8 64.0018z" fill="#fecea8" fill-opacity=".25"/><path d="m52.0001 84.1082 55.9999-16.0004h80l56 16.0004" fill="none"/><path d="m88.0001 42.1072-44 10.0002-32 48.0016v16h36l4-32.0008z" fill="#fecea8" fill-opacity=".25098"/><g fill="none"><path d="m100 28.1068 48 8.0002 48-8.0002"/><path d="m12.0001 100.109h40"/><path d="m68.0001 100.109v24h55.9999v-32.0006h-24z"/></g><path d="m208 42.1072 44 10.0002 32 48.0016v16h-36l-4-32.0008z" fill="#fecea8" fill-opacity=".25098"/><g fill="none"><path d="m284 100.109h-40"/><path d="m228 100.109v24h-56v-32.0006h24z"/></g></g></svg>
