<svg height="64" viewBox="0 0 64 64" width="64" xmlns="http://www.w3.org/2000/svg"><g fill="#fff" stroke="#100f0f" stroke-opacity=".490196"><path d="m14.7398 31.4098-5.84503 3.6706 8.40193 3.1203-2.1005 6.419 10.5025-4.2793 6.3014 8.5586 6.3014-8.5586 10.5024 4.2793-2.1004-6.419 8.4019-3.1203-5.844-3.6706c-.1712.185-.348.3626-.5344.5256-1.2316 1.0754-2.7662 1.8166-4.5076 2.4081-3.4829 1.183-7.8422 1.7176-12.2183 1.7176s-8.7364-.5346-12.2193-1.7176c-1.7414-.5915-3.276-1.3327-4.5076-2.4081-.1864-.163-.3633-.341-.5344-.5256z"/><path d="m32.0001 14.7611c-8.402 0-16.8039 2.1396-16.8039 6.4189v4.2793c0 4.2793 8.4019 6.419 16.8039 6.419 8.4019 0 16.8038-2.1397 16.8038-6.419v-4.2793c0-4.2793-8.4019-6.4189-16.8038-6.4189z"/></g></svg>
